# xmcd CD database file
#
# Track frame offsets:
#	150
#	16863
#	33525
#	50263
#
# Disc length: 891 seconds
#
# Revision: 1
# Processed by: cddbd v1.5.2PL0 Copyright (c) Steve Scherf et al.
# Submitted via: CDex 1.70beta2
#
DISCID=26037904
DTITLE=BibleArt - CREATION ReCREATION
DYEAR=2015
DGENRE=Anime
TTITLE0=CREATION ReCREATION
TTITLE1=CREATION ReCREATION (The Pages of Astil Manuscript)
TTITLE2=CREATION ReCREATION (Chaosic Rune Form)
TTITLE3=CREATION ReCREATION (Instrumental)
EXTD=YEAR: 2015
EXTT0=
EXTT1=
EXTT2=
EXTT3=
PLAYORDER=
